<mxfile host="65bd71144e">
    <diagram id="Ueu3G2N2e2PriZrDmvg2" name="High Level Architecture">
        <mxGraphModel dx="1114" dy="817" grid="1" gridSize="10" guides="1" tooltips="1" connect="1" arrows="1" fold="1" page="1" pageScale="1" pageWidth="827" pageHeight="1169" math="0" shadow="0">
            <root>
                <mxCell id="0"/>
                <mxCell id="1" parent="0"/>
                <mxCell id="48" value="" style="rounded=0;whiteSpace=wrap;html=1;fillColor=#f9f9f9;strokeColor=none;" vertex="1" parent="1">
                    <mxGeometry width="900" height="750" as="geometry"/>
                </mxCell>
                <mxCell id="49" value="Cognitive Hire Architecture" style="text;html=1;strokeColor=none;fillColor=none;align=center;verticalAlign=middle;whiteSpace=wrap;rounded=0;fontSize=24;fontStyle=1" vertex="1" parent="1">
                    <mxGeometry x="250" y="20" width="400" height="30" as="geometry"/>
                </mxCell>
                <mxCell id="50" value="" style="rounded=0;whiteSpace=wrap;html=1;fillColor=#f0f8ff;strokeColor=#4472C4;strokeWidth=2;dashed=1;" vertex="1" parent="1">
                    <mxGeometry x="50" y="70" width="800" height="660" as="geometry"/>
                </mxCell>
                <mxCell id="51" value="Azure Cloud" style="text;html=1;strokeColor=none;fillColor=none;align=left;verticalAlign=middle;whiteSpace=wrap;rounded=0;fontSize=16;fontStyle=1;fontColor=#4472C4;" vertex="1" parent="1">
                    <mxGeometry x="60" y="80" width="200" height="20" as="geometry"/>
                </mxCell>
                <mxCell id="52" value="Azure API Management" style="rounded=1;whiteSpace=wrap;html=1;fillColor=#C5E0B4;strokeColor=#548235;strokeWidth=2;fontSize=14;" vertex="1" parent="1">
                    <mxGeometry x="390" y="100" width="120" height="40" as="geometry"/>
                </mxCell>
                <mxCell id="53" value="Azure AD B2C" style="rounded=1;whiteSpace=wrap;html=1;fillColor=#FFE699;strokeColor=#C65911;strokeWidth=2;fontSize=14;" vertex="1" parent="1">
                    <mxGeometry x="700" y="100" width="120" height="40" as="geometry"/>
                </mxCell>
                <mxCell id="54" value="" style="rounded=1;whiteSpace=wrap;html=1;fillColor=#DAE3F3;strokeColor=#2F528F;strokeWidth=2;" vertex="1" parent="1">
                    <mxGeometry x="90" y="170" width="720" height="260" as="geometry"/>
                </mxCell>
                <mxCell id="55" value="Domain-Based Microservices (FastAPI)" style="text;html=1;strokeColor=none;fillColor=none;align=left;verticalAlign=middle;whiteSpace=wrap;rounded=0;fontSize=16;fontStyle=1" vertex="1" parent="1">
                    <mxGeometry x="100" y="180" width="350" height="20" as="geometry"/>
                </mxCell>
                <mxCell id="56" value="Azure Container Apps" style="text;html=1;strokeColor=none;fillColor=none;align=left;verticalAlign=middle;whiteSpace=wrap;rounded=0;fontSize=12;" vertex="1" parent="1">
                    <mxGeometry x="100" y="200" width="200" height="20" as="geometry"/>
                </mxCell>
                <mxCell id="57" value="Candidate&#xa;&#xa;REST + WebSocket" style="rounded=1;whiteSpace=wrap;html=1;fillColor=#B4C7E7;strokeColor=#2F528F;strokeWidth=2;fontSize=12;align=center;" vertex="1" parent="1">
                    <mxGeometry x="110" y="220" width="100" height="80" as="geometry"/>
                </mxCell>
                <mxCell id="58" value="Employer&#xa;&#xa;REST + WebSocket" style="rounded=1;whiteSpace=wrap;html=1;fillColor=#B4C7E7;strokeColor=#2F528F;strokeWidth=2;fontSize=12;align=center;" vertex="1" parent="1">
                    <mxGeometry x="220" y="220" width="100" height="80" as="geometry"/>
                </mxCell>
                <mxCell id="59" value="Job&#xa;&#xa;REST + WebSocket" style="rounded=1;whiteSpace=wrap;html=1;fillColor=#B4C7E7;strokeColor=#2F528F;strokeWidth=2;fontSize=12;align=center;" vertex="1" parent="1">
                    <mxGeometry x="330" y="220" width="100" height="80" as="geometry"/>
                </mxCell>
                <mxCell id="60" value="Workflow&#xa;&#xa;REST + WebSocket" style="rounded=1;whiteSpace=wrap;html=1;fillColor=#B4C7E7;strokeColor=#2F528F;strokeWidth=2;fontSize=12;align=center;" vertex="1" parent="1">
                    <mxGeometry x="440" y="220" width="100" height="80" as="geometry"/>
                </mxCell>
                <mxCell id="61" value="Interview&#xa;&#xa;REST + WebSocket" style="rounded=1;whiteSpace=wrap;html=1;fillColor=#B4C7E7;strokeColor=#2F528F;strokeWidth=2;fontSize=12;align=center;" vertex="1" parent="1">
                    <mxGeometry x="550" y="220" width="100" height="80" as="geometry"/>
                </mxCell>
                <mxCell id="62" value="Communications&#xa;&#xa;REST + WebSocket" style="rounded=1;whiteSpace=wrap;html=1;fillColor=#B4C7E7;strokeColor=#2F528F;strokeWidth=2;fontSize=12;align=center;" vertex="1" parent="1">
                    <mxGeometry x="660" y="220" width="100" height="80" as="geometry"/>
                </mxCell>
                <mxCell id="63" value="Analytics&#xa;&#xa;REST + WebSocket" style="rounded=1;whiteSpace=wrap;html=1;fillColor=#B4C7E7;strokeColor=#2F528F;strokeWidth=2;fontSize=12;align=center;" vertex="1" parent="1">
                    <mxGeometry x="110" y="310" width="100" height="80" as="geometry"/>
                </mxCell>
                <mxCell id="64" value="Financial&#xa;&#xa;REST + WebSocket" style="rounded=1;whiteSpace=wrap;html=1;fillColor=#B4C7E7;strokeColor=#2F528F;strokeWidth=2;fontSize=12;align=center;" vertex="1" parent="1">
                    <mxGeometry x="220" y="310" width="100" height="80" as="geometry"/>
                </mxCell>
                <mxCell id="65" value="Search&#xa;&#xa;REST + WebSocket" style="rounded=1;whiteSpace=wrap;html=1;fillColor=#B4C7E7;strokeColor=#2F528F;strokeWidth=2;fontSize=12;align=center;" vertex="1" parent="1">
                    <mxGeometry x="330" y="310" width="100" height="80" as="geometry"/>
                </mxCell>
                <mxCell id="66" value="Event-Driven Architecture&#xa;&#xa;Azure Service Bus" style="rounded=1;whiteSpace=wrap;html=1;fillColor=#D9D9D9;strokeColor=#404040;strokeWidth=2;fontSize=12;align=center;" vertex="1" parent="1">
                    <mxGeometry x="440" y="310" width="320" height="80" as="geometry"/>
                </mxCell>
                <mxCell id="67" value="API-First with Auto-Generated Mocks" style="rounded=1;whiteSpace=wrap;html=1;fillColor=#FFE699;strokeColor=#C65911;strokeWidth=1;fontSize=10;align=center;opacity=80;" vertex="1" parent="1">
                    <mxGeometry x="110" y="400" width="150" height="25" as="geometry"/>
                </mxCell>
                <mxCell id="68" value="" style="endArrow=classic;html=1;exitX=0.5;exitY=1;exitDx=0;exitDy=0;entryX=0.5;entryY=0;entryDx=0;entryDy=0;strokeColor=#2F528F;strokeWidth=2;" edge="1" parent="1" source="52" target="54">
                    <mxGeometry width="50" height="50" relative="1" as="geometry">
                        <mxPoint x="450" y="140" as="sourcePoint"/>
                        <mxPoint x="450" y="170" as="targetPoint"/>
                    </mxGeometry>
                </mxCell>
                <mxCell id="69" value="" style="endArrow=classic;html=1;exitX=0.5;exitY=1;exitDx=0;exitDy=0;entryX=0.5;entryY=0;entryDx=0;entryDy=0;strokeColor=#C65911;strokeWidth=2;" edge="1" parent="1">
                    <mxGeometry width="50" height="50" relative="1" as="geometry">
                        <mxPoint x="760" y="140" as="sourcePoint"/>
                        <mxPoint x="760" y="120" as="targetPoint"/>
                    </mxGeometry>
                </mxCell>
                <mxCell id="70" value="" style="endArrow=classic;html=1;exitX=1;exitY=0.5;exitDx=0;exitDy=0;entryX=0;entryY=0.5;entryDx=0;entryDy=0;strokeColor=#2F528F;strokeWidth=2;" edge="1" parent="1">
                    <mxGeometry width="50" height="50" relative="1" as="geometry">
                        <mxPoint x="510" y="120" as="sourcePoint"/>
                        <mxPoint x="700" y="120" as="targetPoint"/>
                    </mxGeometry>
                </mxCell>
                <mxCell id="71" value="" style="rounded=1;whiteSpace=wrap;html=1;fillColor=#E2EFDA;strokeColor=#548235;strokeWidth=2;" vertex="1" parent="1">
                    <mxGeometry x="90" y="460" width="720" height="200" as="geometry"/>
                </mxCell>
                <mxCell id="72" value="Polyglot Persistence" style="text;html=1;strokeColor=none;fillColor=none;align=left;verticalAlign=middle;whiteSpace=wrap;rounded=0;fontSize=16;fontStyle=1" vertex="1" parent="1">
                    <mxGeometry x="100" y="470" width="200" height="20" as="geometry"/>
                </mxCell>
                <mxCell id="73" value="Cosmos DB (NoSQL)&#xa;&#xa;- Candidate profiles&#xa;- Workflow states&#xa;- Event data" style="rounded=1;whiteSpace=wrap;html=1;fillColor=#C5E0B4;strokeColor=#548235;strokeWidth=2;fontSize=12;align=center;" vertex="1" parent="1">
                    <mxGeometry x="110" y="500" width="200" height="80" as="geometry"/>
                </mxCell>
                <mxCell id="74" value="Azure SQL&#xa;&#xa;- Organizational data&#xa;- Reporting&#xa;- Transactions" style="rounded=1;whiteSpace=wrap;html=1;fillColor=#C5E0B4;strokeColor=#548235;strokeWidth=2;fontSize=12;align=center;" vertex="1" parent="1">
                    <mxGeometry x="350" y="500" width="200" height="80" as="geometry"/>
                </mxCell>
                <mxCell id="75" value="Blob Storage&#xa;&#xa;- Documents&#xa;- Resumes&#xa;- Media files" style="rounded=1;whiteSpace=wrap;html=1;fillColor=#C5E0B4;strokeColor=#548235;strokeWidth=2;fontSize=12;align=center;" vertex="1" parent="1">
                    <mxGeometry x="590" y="500" width="200" height="80" as="geometry"/>
                </mxCell>
                <mxCell id="76" value="Redis Cache&#xa;(WebSocket coordination)" style="rounded=1;whiteSpace=wrap;html=1;fillColor=#FFD966;strokeColor=#C65911;strokeWidth=2;fontSize=14;align=center;" vertex="1" parent="1">
                    <mxGeometry x="230" y="600" width="200" height="40" as="geometry"/>
                </mxCell>
                <mxCell id="77" value="Azure App Configuration&#xa;(Feature Flags)" style="rounded=1;whiteSpace=wrap;html=1;fillColor=#FFD966;strokeColor=#C65911;strokeWidth=2;fontSize=14;align=center;" vertex="1" parent="1">
                    <mxGeometry x="470" y="600" width="200" height="40" as="geometry"/>
                </mxCell>
                <mxCell id="78" value="" style="endArrow=classic;html=1;exitX=0.5;exitY=1;exitDx=0;exitDy=0;entryX=0.5;entryY=0;entryDx=0;entryDy=0;strokeColor=#548235;strokeWidth=2;" edge="1" parent="1">
                    <mxGeometry width="50" height="50" relative="1" as="geometry">
                        <mxPoint x="450" y="430" as="sourcePoint"/>
                        <mxPoint x="450" y="460" as="targetPoint"/>
                    </mxGeometry>
                </mxCell>
                <mxCell id="79" value="Local Dev: Docker Compose" style="rounded=1;whiteSpace=wrap;html=1;fillColor=#BDD7EE;strokeColor=#2F528F;strokeWidth=2;fontSize=14;align=center;" vertex="1" parent="1">
                    <mxGeometry x="90" y="690" width="220" height="30" as="geometry"/>
                </mxCell>
                <mxCell id="80" value="IaC: Terraform" style="rounded=1;whiteSpace=wrap;html=1;fillColor=#BDD7EE;strokeColor=#2F528F;strokeWidth=2;fontSize=14;align=center;" vertex="1" parent="1">
                    <mxGeometry x="330" y="690" width="220" height="30" as="geometry"/>
                </mxCell>
                <mxCell id="81" value="CI/CD: GitHub Actions" style="rounded=1;whiteSpace=wrap;html=1;fillColor=#BDD7EE;strokeColor=#2F528F;strokeWidth=2;fontSize=14;align=center;" vertex="1" parent="1">
                    <mxGeometry x="570" y="690" width="220" height="30" as="geometry"/>
                </mxCell>
                <mxCell id="82" value="Security Framework&#xa;GDPR Compliance" style="ellipse;whiteSpace=wrap;html=1;fillColor=#FFB6C1;strokeColor=#C00000;strokeWidth=2;opacity=70;fontSize=14;fontColor=#C00000;align=center;" vertex="1" parent="1">
                    <mxGeometry x="550" y="380" width="200" height="80" as="geometry"/>
                </mxCell>
                <mxCell id="83" value="" style="rounded=1;whiteSpace=wrap;html=1;fillColor=#ffffff;strokeColor=#2F528F;strokeWidth=1;" vertex="1" parent="1">
                    <mxGeometry x="70" y="50" width="240" height="130" as="geometry"/>
                </mxCell>
                <mxCell id="84" value="Deployment Strategy" style="text;html=1;strokeColor=none;fillColor=none;align=center;verticalAlign=middle;whiteSpace=wrap;rounded=0;fontSize=14;fontStyle=1" vertex="1" parent="1">
                    <mxGeometry x="70" y="60" width="240" height="20" as="geometry"/>
                </mxCell>
                <mxCell id="85" value="" style="ellipse;whiteSpace=wrap;html=1;aspect=fixed;fillColor=#FFD966;strokeColor=none;" vertex="1" parent="1">
                    <mxGeometry x="80" y="85" width="10" height="10" as="geometry"/>
                </mxCell>
                <mxCell id="86" value="Phase 1: Core Platform (1 mo)" style="text;html=1;strokeColor=none;fillColor=none;align=left;verticalAlign=middle;whiteSpace=wrap;rounded=0;fontSize=12;" vertex="1" parent="1">
                    <mxGeometry x="100" y="85" width="200" height="10" as="geometry"/>
                </mxCell>
                <mxCell id="87" value="" style="ellipse;whiteSpace=wrap;html=1;aspect=fixed;fillColor=#BDD7EE;strokeColor=none;" vertex="1" parent="1">
                    <mxGeometry x="80" y="110" width="10" height="10" as="geometry"/>
                </mxCell>
                <mxCell id="88" value="Phase 2: Enhanced Features (2-3 mo)" style="text;html=1;strokeColor=none;fillColor=none;align=left;verticalAlign=middle;whiteSpace=wrap;rounded=0;fontSize=12;" vertex="1" parent="1">
                    <mxGeometry x="100" y="110" width="200" height="10" as="geometry"/>
                </mxCell>
                <mxCell id="89" value="" style="ellipse;whiteSpace=wrap;html=1;aspect=fixed;fillColor=#C5E0B4;strokeColor=none;" vertex="1" parent="1">
                    <mxGeometry x="80" y="135" width="10" height="10" as="geometry"/>
                </mxCell>
                <mxCell id="90" value="Phase 3: Scale &amp; Optimize (3+ mo)" style="text;html=1;strokeColor=none;fillColor=none;align=left;verticalAlign=middle;whiteSpace=wrap;rounded=0;fontSize=12;" vertex="1" parent="1">
                    <mxGeometry x="100" y="135" width="200" height="10" as="geometry"/>
                </mxCell>
                <mxCell id="91" value="" style="ellipse;whiteSpace=wrap;html=1;aspect=fixed;fillColor=#FFB6C1;strokeColor=none;" vertex="1" parent="1">
                    <mxGeometry x="80" y="160" width="10" height="10" as="geometry"/>
                </mxCell>
                <mxCell id="92" value="GDPR &amp; Security Compliance" style="text;html=1;strokeColor=none;fillColor=none;align=left;verticalAlign=middle;whiteSpace=wrap;rounded=0;fontSize=12;" vertex="1" parent="1">
                    <mxGeometry x="100" y="160" width="200" height="10" as="geometry"/>
                </mxCell>
                <mxCell id="93" value="Traceability Framework" style="rounded=1;whiteSpace=wrap;html=1;fillColor=#ffffff;strokeColor=#2F528F;strokeWidth=1;fontSize=12;align=center;" vertex="1" parent="1">
                    <mxGeometry x="700" y="50" width="175" height="30" as="geometry"/>
                </mxCell>
                <mxCell id="94" value="" style="endArrow=classic;startArrow=classic;html=1;rounded=0;entryX=0.5;entryY=1;entryDx=0;entryDy=0;exitX=0.5;exitY=0;exitDx=0;exitDy=0;strokeColor=#2F528F;strokeWidth=2;" edge="1" parent="1" source="71" target="54">
                    <mxGeometry width="50" height="50" relative="1" as="geometry">
                        <mxPoint x="400" y="460" as="sourcePoint"/>
                        <mxPoint x="450" y="410" as="targetPoint"/>
                    </mxGeometry>
                </mxCell>
            </root>
        </mxGraphModel>
    </diagram>
</mxfile>